<svg xmlns="http://www.w3.org/2000/svg" viewBox="0 0 800 1000" width="800" height="1000" role="img">
<defs>
<linearGradient id="bg" x1="0" y1="0" x2="0" y2="1">
<stop offset="0%" stop-color="#fdfcfc"/><stop offset="100%" stop-color="#f2eeee"/>
</linearGradient>
<radialGradient id="glow" cx="50%" cy="36%" r="58%">
<stop offset="0%" stop-color="#dd3c51" stop-opacity="0.10"/>
<stop offset="100%" stop-color="#dd3c51" stop-opacity="0"/>
</radialGradient>
<linearGradient id="dev" x1="0.1" y1="0" x2="0.9" y2="1">
<stop offset="0%" stop-color="#bfb0b2"/>
<stop offset="42%" stop-color="#8e7b7d"/>
<stop offset="100%" stop-color="#a89497"/>
</linearGradient>
<linearGradient id="scr" x1="0" y1="0" x2="0.8" y2="1">
<stop offset="0%" stop-color="#983e4a"/>
<stop offset="100%" stop-color="#62222b"/>
</linearGradient>
<linearGradient id="sheen" x1="0" y1="0" x2="1" y2="1">
<stop offset="0%" stop-color="#fff" stop-opacity="0.16"/>
<stop offset="55%" stop-color="#fff" stop-opacity="0"/>
</linearGradient>
</defs>
<rect width="800" height="1000" fill="url(#bg)"/>
<rect width="800" height="1000" fill="url(#glow)"/>
<g transform="translate(400 500)">
<path d="M-250 130 h500 l52 74 h-604 z" fill="url(#dev)"/>
<path d="M-290 204 h580 a26 26 0 0 1 -26 26 h-528 a26 26 0 0 1 -26 -26 z" fill="#2e2e2e"/>
<rect x="-60" y="196" width="120" height="8" rx="4" fill="#000" opacity="0.4"/>
<rect x="-250" y="-190" width="500" height="322" rx="16" fill="url(#dev)"/>
<rect x="-234" y="-174" width="468" height="286" rx="8" fill="url(#scr)"/>
<rect x="-234" y="-174" width="468" height="286" rx="8" fill="url(#sheen)"/>
<circle cx="0" cy="-182" r="4" fill="#000" opacity="0.6"/>
</g>
<ellipse cx="400" cy="880" rx="200" ry="22" fill="#000" opacity="0.10"/>
</svg>